<mxfile host="Electron" modified="2024-01-16T06:28:30.559Z" agent="Mozilla/5.0 (Windows NT 10.0; Win64; x64) AppleWebKit/537.36 (KHTML, like Gecko) draw.io/22.1.11 Chrome/114.0.5735.289 Electron/25.9.8 Safari/537.36" etag="mj91guy92jM-dYWvsDf7" version="22.1.11" type="device">
  <diagram name="페이지-1" id="ioY0663PlJX6OqY2XDHj">
    <mxGraphModel dx="1036" dy="629" grid="1" gridSize="10" guides="1" tooltips="1" connect="1" arrows="1" fold="1" page="1" pageScale="1" pageWidth="827" pageHeight="1169" math="0" shadow="0">
      <root>
        <mxCell id="0" />
        <mxCell id="1" parent="0" />
        <mxCell id="2oV3-EDmokMyJ92ILHWt-1" value="" style="rounded=0;whiteSpace=wrap;html=1;" vertex="1" parent="1">
          <mxGeometry x="40" y="80" width="120" height="20" as="geometry" />
        </mxCell>
        <mxCell id="2oV3-EDmokMyJ92ILHWt-2" value="길이 2" style="text;html=1;strokeColor=none;fillColor=none;align=center;verticalAlign=middle;whiteSpace=wrap;rounded=0;fontSize=20;" vertex="1" parent="1">
          <mxGeometry x="40" y="40" width="60" height="40" as="geometry" />
        </mxCell>
        <mxCell id="2oV3-EDmokMyJ92ILHWt-4" value="" style="endArrow=none;dashed=1;html=1;rounded=0;exitX=0.75;exitY=1;exitDx=0;exitDy=0;" edge="1" parent="1">
          <mxGeometry width="50" height="50" relative="1" as="geometry">
            <mxPoint x="120" y="100" as="sourcePoint" />
            <mxPoint x="120" y="80" as="targetPoint" />
          </mxGeometry>
        </mxCell>
        <mxCell id="2oV3-EDmokMyJ92ILHWt-5" value="0" style="text;strokeColor=none;fillColor=none;align=left;verticalAlign=middle;spacingLeft=4;spacingRight=4;overflow=hidden;points=[[0,0.5],[1,0.5]];portConstraint=eastwest;rotatable=0;whiteSpace=wrap;html=1;" vertex="1" parent="1">
          <mxGeometry x="30" y="100" width="20" height="20" as="geometry" />
        </mxCell>
        <mxCell id="2oV3-EDmokMyJ92ILHWt-6" value="4" style="text;strokeColor=none;fillColor=none;align=left;verticalAlign=middle;spacingLeft=4;spacingRight=4;overflow=hidden;points=[[0,0.5],[1,0.5]];portConstraint=eastwest;rotatable=0;whiteSpace=wrap;html=1;" vertex="1" parent="1">
          <mxGeometry x="110" y="100" width="20" height="20" as="geometry" />
        </mxCell>
        <mxCell id="2oV3-EDmokMyJ92ILHWt-7" value="5" style="text;strokeColor=none;fillColor=none;align=left;verticalAlign=middle;spacingLeft=4;spacingRight=4;overflow=hidden;points=[[0,0.5],[1,0.5]];portConstraint=eastwest;rotatable=0;whiteSpace=wrap;html=1;" vertex="1" parent="1">
          <mxGeometry x="150" y="100" width="20" height="20" as="geometry" />
        </mxCell>
        <mxCell id="2oV3-EDmokMyJ92ILHWt-8" value="길이 3" style="text;html=1;strokeColor=none;fillColor=none;align=center;verticalAlign=middle;whiteSpace=wrap;rounded=0;fontSize=20;" vertex="1" parent="1">
          <mxGeometry x="40" y="160" width="60" height="40" as="geometry" />
        </mxCell>
        <mxCell id="2oV3-EDmokMyJ92ILHWt-10" value="" style="rounded=0;whiteSpace=wrap;html=1;" vertex="1" parent="1">
          <mxGeometry x="40" y="200" width="200" height="20" as="geometry" />
        </mxCell>
        <mxCell id="2oV3-EDmokMyJ92ILHWt-11" value="" style="endArrow=none;dashed=1;html=1;rounded=0;exitX=0.75;exitY=1;exitDx=0;exitDy=0;" edge="1" parent="1">
          <mxGeometry width="50" height="50" relative="1" as="geometry">
            <mxPoint x="120" y="220" as="sourcePoint" />
            <mxPoint x="120" y="200" as="targetPoint" />
          </mxGeometry>
        </mxCell>
        <mxCell id="2oV3-EDmokMyJ92ILHWt-12" value="0" style="text;strokeColor=none;fillColor=none;align=left;verticalAlign=middle;spacingLeft=4;spacingRight=4;overflow=hidden;points=[[0,0.5],[1,0.5]];portConstraint=eastwest;rotatable=0;whiteSpace=wrap;html=1;" vertex="1" parent="1">
          <mxGeometry x="30" y="220" width="20" height="20" as="geometry" />
        </mxCell>
        <mxCell id="2oV3-EDmokMyJ92ILHWt-13" value="4" style="text;strokeColor=none;fillColor=none;align=left;verticalAlign=middle;spacingLeft=4;spacingRight=4;overflow=hidden;points=[[0,0.5],[1,0.5]];portConstraint=eastwest;rotatable=0;whiteSpace=wrap;html=1;" vertex="1" parent="1">
          <mxGeometry x="110" y="220" width="20" height="20" as="geometry" />
        </mxCell>
        <mxCell id="2oV3-EDmokMyJ92ILHWt-14" value="5" style="text;strokeColor=none;fillColor=none;align=left;verticalAlign=middle;spacingLeft=4;spacingRight=4;overflow=hidden;points=[[0,0.5],[1,0.5]];portConstraint=eastwest;rotatable=0;whiteSpace=wrap;html=1;" vertex="1" parent="1">
          <mxGeometry x="150" y="220" width="20" height="20" as="geometry" />
        </mxCell>
        <mxCell id="2oV3-EDmokMyJ92ILHWt-15" value="" style="endArrow=none;dashed=1;html=1;rounded=0;exitX=0.75;exitY=1;exitDx=0;exitDy=0;" edge="1" parent="1">
          <mxGeometry width="50" height="50" relative="1" as="geometry">
            <mxPoint x="159.8" y="220" as="sourcePoint" />
            <mxPoint x="159.8" y="200" as="targetPoint" />
          </mxGeometry>
        </mxCell>
        <mxCell id="2oV3-EDmokMyJ92ILHWt-16" value="7" style="text;strokeColor=none;fillColor=none;align=left;verticalAlign=middle;spacingLeft=4;spacingRight=4;overflow=hidden;points=[[0,0.5],[1,0.5]];portConstraint=eastwest;rotatable=0;whiteSpace=wrap;html=1;" vertex="1" parent="1">
          <mxGeometry x="230" y="220" width="20" height="20" as="geometry" />
        </mxCell>
        <mxCell id="2oV3-EDmokMyJ92ILHWt-17" value="길이 4" style="text;html=1;strokeColor=none;fillColor=none;align=center;verticalAlign=middle;whiteSpace=wrap;rounded=0;fontSize=20;" vertex="1" parent="1">
          <mxGeometry x="40" y="280" width="60" height="40" as="geometry" />
        </mxCell>
        <mxCell id="2oV3-EDmokMyJ92ILHWt-18" value="" style="rounded=0;whiteSpace=wrap;html=1;" vertex="1" parent="1">
          <mxGeometry x="40" y="320" width="240" height="20" as="geometry" />
        </mxCell>
        <mxCell id="2oV3-EDmokMyJ92ILHWt-19" value="" style="endArrow=none;dashed=1;html=1;rounded=0;exitX=0.75;exitY=1;exitDx=0;exitDy=0;" edge="1" parent="1">
          <mxGeometry width="50" height="50" relative="1" as="geometry">
            <mxPoint x="120" y="340" as="sourcePoint" />
            <mxPoint x="120" y="320" as="targetPoint" />
          </mxGeometry>
        </mxCell>
        <mxCell id="2oV3-EDmokMyJ92ILHWt-20" value="0" style="text;strokeColor=none;fillColor=none;align=left;verticalAlign=middle;spacingLeft=4;spacingRight=4;overflow=hidden;points=[[0,0.5],[1,0.5]];portConstraint=eastwest;rotatable=0;whiteSpace=wrap;html=1;" vertex="1" parent="1">
          <mxGeometry x="30" y="340" width="20" height="20" as="geometry" />
        </mxCell>
        <mxCell id="2oV3-EDmokMyJ92ILHWt-21" value="4" style="text;strokeColor=none;fillColor=none;align=left;verticalAlign=middle;spacingLeft=4;spacingRight=4;overflow=hidden;points=[[0,0.5],[1,0.5]];portConstraint=eastwest;rotatable=0;whiteSpace=wrap;html=1;" vertex="1" parent="1">
          <mxGeometry x="110" y="340" width="20" height="20" as="geometry" />
        </mxCell>
        <mxCell id="2oV3-EDmokMyJ92ILHWt-22" value="5" style="text;strokeColor=none;fillColor=none;align=left;verticalAlign=middle;spacingLeft=4;spacingRight=4;overflow=hidden;points=[[0,0.5],[1,0.5]];portConstraint=eastwest;rotatable=0;whiteSpace=wrap;html=1;" vertex="1" parent="1">
          <mxGeometry x="150" y="340" width="20" height="20" as="geometry" />
        </mxCell>
        <mxCell id="2oV3-EDmokMyJ92ILHWt-23" value="" style="endArrow=none;dashed=1;html=1;rounded=0;exitX=0.75;exitY=1;exitDx=0;exitDy=0;" edge="1" parent="1">
          <mxGeometry width="50" height="50" relative="1" as="geometry">
            <mxPoint x="159.8" y="340" as="sourcePoint" />
            <mxPoint x="159.8" y="320" as="targetPoint" />
          </mxGeometry>
        </mxCell>
        <mxCell id="2oV3-EDmokMyJ92ILHWt-24" value="7" style="text;strokeColor=none;fillColor=none;align=left;verticalAlign=middle;spacingLeft=4;spacingRight=4;overflow=hidden;points=[[0,0.5],[1,0.5]];portConstraint=eastwest;rotatable=0;whiteSpace=wrap;html=1;" vertex="1" parent="1">
          <mxGeometry x="230" y="340" width="20" height="20" as="geometry" />
        </mxCell>
        <mxCell id="2oV3-EDmokMyJ92ILHWt-25" value="8" style="text;strokeColor=none;fillColor=none;align=left;verticalAlign=middle;spacingLeft=4;spacingRight=4;overflow=hidden;points=[[0,0.5],[1,0.5]];portConstraint=eastwest;rotatable=0;whiteSpace=wrap;html=1;" vertex="1" parent="1">
          <mxGeometry x="270" y="340" width="20" height="20" as="geometry" />
        </mxCell>
        <mxCell id="2oV3-EDmokMyJ92ILHWt-26" value="" style="endArrow=none;dashed=1;html=1;rounded=0;exitX=0.75;exitY=1;exitDx=0;exitDy=0;" edge="1" parent="1">
          <mxGeometry width="50" height="50" relative="1" as="geometry">
            <mxPoint x="240" y="340" as="sourcePoint" />
            <mxPoint x="240" y="320" as="targetPoint" />
          </mxGeometry>
        </mxCell>
        <mxCell id="2oV3-EDmokMyJ92ILHWt-27" value="4 자르기" style="text;html=1;strokeColor=none;fillColor=none;align=center;verticalAlign=middle;whiteSpace=wrap;rounded=0;fontSize=20;" vertex="1" parent="1">
          <mxGeometry x="200" y="60" width="80" height="40" as="geometry" />
        </mxCell>
        <mxCell id="2oV3-EDmokMyJ92ILHWt-28" value="4 자르기" style="text;html=1;strokeColor=none;fillColor=none;align=center;verticalAlign=middle;whiteSpace=wrap;rounded=0;fontSize=20;" vertex="1" parent="1">
          <mxGeometry x="280" y="160" width="80" height="40" as="geometry" />
        </mxCell>
        <mxCell id="2oV3-EDmokMyJ92ILHWt-29" value="5 자르기" style="text;html=1;strokeColor=none;fillColor=none;align=center;verticalAlign=middle;whiteSpace=wrap;rounded=0;fontSize=20;" vertex="1" parent="1">
          <mxGeometry x="280" y="200" width="80" height="40" as="geometry" />
        </mxCell>
        <mxCell id="2oV3-EDmokMyJ92ILHWt-30" value="5 자르기" style="text;html=1;strokeColor=none;fillColor=none;align=center;verticalAlign=middle;whiteSpace=wrap;rounded=0;fontSize=20;" vertex="1" parent="1">
          <mxGeometry x="320" y="320" width="80" height="40" as="geometry" />
        </mxCell>
        <mxCell id="2oV3-EDmokMyJ92ILHWt-31" value="4 자르기" style="text;html=1;strokeColor=none;fillColor=none;align=center;verticalAlign=middle;whiteSpace=wrap;rounded=0;fontSize=20;" vertex="1" parent="1">
          <mxGeometry x="320" y="280" width="80" height="40" as="geometry" />
        </mxCell>
        <mxCell id="2oV3-EDmokMyJ92ILHWt-32" value="7 자르기" style="text;html=1;strokeColor=none;fillColor=none;align=center;verticalAlign=middle;whiteSpace=wrap;rounded=0;fontSize=20;" vertex="1" parent="1">
          <mxGeometry x="320" y="360" width="80" height="40" as="geometry" />
        </mxCell>
        <mxCell id="2oV3-EDmokMyJ92ILHWt-34" value="" style="shape=flexArrow;endArrow=classic;html=1;rounded=0;endWidth=8.275862068965518;endSize=11.671264367816093;" edge="1" parent="1">
          <mxGeometry width="50" height="50" relative="1" as="geometry">
            <mxPoint x="380" y="179.71" as="sourcePoint" />
            <mxPoint x="440" y="179.71" as="targetPoint" />
          </mxGeometry>
        </mxCell>
        <mxCell id="2oV3-EDmokMyJ92ILHWt-35" value="" style="shape=flexArrow;endArrow=classic;html=1;rounded=0;endWidth=8.275862068965518;endSize=11.671264367816093;" edge="1" parent="1">
          <mxGeometry width="50" height="50" relative="1" as="geometry">
            <mxPoint x="380" y="220" as="sourcePoint" />
            <mxPoint x="440" y="220" as="targetPoint" />
          </mxGeometry>
        </mxCell>
        <mxCell id="2oV3-EDmokMyJ92ILHWt-36" value="7 + 3 = 10" style="text;html=1;align=center;verticalAlign=middle;resizable=0;points=[];autosize=1;strokeColor=none;fillColor=none;" vertex="1" parent="1">
          <mxGeometry x="440" y="165" width="80" height="30" as="geometry" />
        </mxCell>
        <mxCell id="2oV3-EDmokMyJ92ILHWt-37" value="7 + (길이 2 값 재사용) = 7 + 5 = 12" style="text;html=1;align=center;verticalAlign=middle;resizable=0;points=[];autosize=1;strokeColor=none;fillColor=none;" vertex="1" parent="1">
          <mxGeometry x="440" y="205" width="210" height="30" as="geometry" />
        </mxCell>
        <mxCell id="2oV3-EDmokMyJ92ILHWt-38" value="" style="shape=flexArrow;endArrow=classic;html=1;rounded=0;endWidth=8.275862068965518;endSize=11.671264367816093;" edge="1" parent="1">
          <mxGeometry width="50" height="50" relative="1" as="geometry">
            <mxPoint x="414" y="302.28999999999996" as="sourcePoint" />
            <mxPoint x="474" y="302.28999999999996" as="targetPoint" />
          </mxGeometry>
        </mxCell>
        <mxCell id="2oV3-EDmokMyJ92ILHWt-39" value="" style="shape=flexArrow;endArrow=classic;html=1;rounded=0;endWidth=8.275862068965518;endSize=11.671264367816093;" edge="1" parent="1">
          <mxGeometry width="50" height="50" relative="1" as="geometry">
            <mxPoint x="414" y="342.71" as="sourcePoint" />
            <mxPoint x="474" y="342.71" as="targetPoint" />
          </mxGeometry>
        </mxCell>
        <mxCell id="2oV3-EDmokMyJ92ILHWt-40" value="" style="shape=flexArrow;endArrow=classic;html=1;rounded=0;endWidth=8.275862068965518;endSize=11.671264367816093;" edge="1" parent="1">
          <mxGeometry width="50" height="50" relative="1" as="geometry">
            <mxPoint x="414" y="382.46999999999997" as="sourcePoint" />
            <mxPoint x="474" y="382.46999999999997" as="targetPoint" />
          </mxGeometry>
        </mxCell>
        <mxCell id="2oV3-EDmokMyJ92ILHWt-41" value="8 + (길이 3 값 재사용) = 8 + 10 = 18" style="text;html=1;align=center;verticalAlign=middle;resizable=0;points=[];autosize=1;strokeColor=none;fillColor=none;" vertex="1" parent="1">
          <mxGeometry x="474" y="367.71" width="210" height="30" as="geometry" />
        </mxCell>
        <mxCell id="2oV3-EDmokMyJ92ILHWt-42" value="8 + (길이 2 값 재사용) + 3 = 16" style="text;html=1;align=center;verticalAlign=middle;resizable=0;points=[];autosize=1;strokeColor=none;fillColor=none;" vertex="1" parent="1">
          <mxGeometry x="474" y="325" width="190" height="30" as="geometry" />
        </mxCell>
        <mxCell id="2oV3-EDmokMyJ92ILHWt-43" value="8 + 4 + 3 = 15" style="text;html=1;align=center;verticalAlign=middle;resizable=0;points=[];autosize=1;strokeColor=none;fillColor=none;" vertex="1" parent="1">
          <mxGeometry x="474" y="285" width="100" height="30" as="geometry" />
        </mxCell>
        <mxCell id="2oV3-EDmokMyJ92ILHWt-44" value="" style="rounded=0;whiteSpace=wrap;html=1;" vertex="1" parent="1">
          <mxGeometry x="600" y="260" width="160" height="10" as="geometry" />
        </mxCell>
        <mxCell id="2oV3-EDmokMyJ92ILHWt-45" value="" style="rounded=0;whiteSpace=wrap;html=1;" vertex="1" parent="1">
          <mxGeometry x="600" y="290" width="160" height="10" as="geometry" />
        </mxCell>
        <mxCell id="2oV3-EDmokMyJ92ILHWt-46" value="0" style="text;html=1;strokeColor=none;fillColor=none;align=center;verticalAlign=middle;whiteSpace=wrap;rounded=0;" vertex="1" parent="1">
          <mxGeometry x="590" y="270" width="20" height="20" as="geometry" />
        </mxCell>
        <mxCell id="2oV3-EDmokMyJ92ILHWt-48" value="0" style="text;html=1;strokeColor=none;fillColor=none;align=center;verticalAlign=middle;whiteSpace=wrap;rounded=0;" vertex="1" parent="1">
          <mxGeometry x="590" y="300" width="20" height="20" as="geometry" />
        </mxCell>
        <mxCell id="2oV3-EDmokMyJ92ILHWt-49" value="4" style="text;html=1;strokeColor=none;fillColor=none;align=center;verticalAlign=middle;whiteSpace=wrap;rounded=0;" vertex="1" parent="1">
          <mxGeometry x="650" y="270" width="20" height="20" as="geometry" />
        </mxCell>
        <mxCell id="2oV3-EDmokMyJ92ILHWt-50" value="4" style="text;html=1;strokeColor=none;fillColor=none;align=center;verticalAlign=middle;whiteSpace=wrap;rounded=0;" vertex="1" parent="1">
          <mxGeometry x="650" y="300" width="20" height="20" as="geometry" />
        </mxCell>
        <mxCell id="2oV3-EDmokMyJ92ILHWt-51" value="5" style="text;html=1;strokeColor=none;fillColor=none;align=center;verticalAlign=middle;whiteSpace=wrap;rounded=0;" vertex="1" parent="1">
          <mxGeometry x="680" y="300" width="20" height="20" as="geometry" />
        </mxCell>
        <mxCell id="2oV3-EDmokMyJ92ILHWt-52" value="5" style="text;html=1;strokeColor=none;fillColor=none;align=center;verticalAlign=middle;whiteSpace=wrap;rounded=0;" vertex="1" parent="1">
          <mxGeometry x="680" y="270" width="20" height="20" as="geometry" />
        </mxCell>
        <mxCell id="2oV3-EDmokMyJ92ILHWt-55" value="8" style="text;html=1;strokeColor=none;fillColor=none;align=center;verticalAlign=middle;whiteSpace=wrap;rounded=0;" vertex="1" parent="1">
          <mxGeometry x="750" y="300" width="20" height="20" as="geometry" />
        </mxCell>
        <mxCell id="2oV3-EDmokMyJ92ILHWt-56" value="7" style="text;html=1;strokeColor=none;fillColor=none;align=center;verticalAlign=middle;whiteSpace=wrap;rounded=0;" vertex="1" parent="1">
          <mxGeometry x="720" y="300" width="20" height="20" as="geometry" />
        </mxCell>
        <mxCell id="2oV3-EDmokMyJ92ILHWt-57" value="7" style="text;html=1;strokeColor=none;fillColor=none;align=center;verticalAlign=middle;whiteSpace=wrap;rounded=0;" vertex="1" parent="1">
          <mxGeometry x="720" y="270" width="20" height="20" as="geometry" />
        </mxCell>
        <mxCell id="2oV3-EDmokMyJ92ILHWt-58" value="8" style="text;html=1;strokeColor=none;fillColor=none;align=center;verticalAlign=middle;whiteSpace=wrap;rounded=0;" vertex="1" parent="1">
          <mxGeometry x="750" y="270" width="20" height="20" as="geometry" />
        </mxCell>
        <mxCell id="2oV3-EDmokMyJ92ILHWt-60" value="" style="endArrow=none;html=1;rounded=0;exitX=0.5;exitY=0;exitDx=0;exitDy=0;entryX=0.375;entryY=0.002;entryDx=0;entryDy=0;entryPerimeter=0;spacing=0;" edge="1" parent="1" source="2oV3-EDmokMyJ92ILHWt-49" target="2oV3-EDmokMyJ92ILHWt-44">
          <mxGeometry width="50" height="50" relative="1" as="geometry">
            <mxPoint x="660" y="310" as="sourcePoint" />
            <mxPoint x="710" y="260" as="targetPoint" />
          </mxGeometry>
        </mxCell>
        <mxCell id="2oV3-EDmokMyJ92ILHWt-61" value="" style="endArrow=none;html=1;rounded=0;exitX=0.5;exitY=0;exitDx=0;exitDy=0;entryX=0.375;entryY=0.002;entryDx=0;entryDy=0;entryPerimeter=0;spacing=0;" edge="1" parent="1">
          <mxGeometry width="50" height="50" relative="1" as="geometry">
            <mxPoint x="689.95" y="269.98" as="sourcePoint" />
            <mxPoint x="689.95" y="259.98" as="targetPoint" />
          </mxGeometry>
        </mxCell>
        <mxCell id="2oV3-EDmokMyJ92ILHWt-63" value="" style="endArrow=none;html=1;rounded=0;exitX=0.5;exitY=0;exitDx=0;exitDy=0;entryX=0.375;entryY=0.002;entryDx=0;entryDy=0;entryPerimeter=0;spacing=0;" edge="1" parent="1">
          <mxGeometry width="50" height="50" relative="1" as="geometry">
            <mxPoint x="659.9" y="300" as="sourcePoint" />
            <mxPoint x="659.9" y="290" as="targetPoint" />
          </mxGeometry>
        </mxCell>
        <mxCell id="2oV3-EDmokMyJ92ILHWt-69" value="" style="endArrow=none;html=1;rounded=0;exitX=0.5;exitY=0;exitDx=0;exitDy=0;entryX=0.375;entryY=0.002;entryDx=0;entryDy=0;entryPerimeter=0;spacing=0;" edge="1" parent="1">
          <mxGeometry width="50" height="50" relative="1" as="geometry">
            <mxPoint x="729.9000000000001" y="300" as="sourcePoint" />
            <mxPoint x="729.9000000000001" y="290" as="targetPoint" />
          </mxGeometry>
        </mxCell>
        <mxCell id="2oV3-EDmokMyJ92ILHWt-70" value="15" style="text;html=1;strokeColor=none;fillColor=none;align=center;verticalAlign=middle;whiteSpace=wrap;rounded=0;" vertex="1" parent="1">
          <mxGeometry x="760" y="240" width="40" height="30" as="geometry" />
        </mxCell>
        <mxCell id="2oV3-EDmokMyJ92ILHWt-71" value="15" style="text;html=1;strokeColor=none;fillColor=none;align=center;verticalAlign=middle;whiteSpace=wrap;rounded=0;" vertex="1" parent="1">
          <mxGeometry x="760" y="280" width="40" height="30" as="geometry" />
        </mxCell>
      </root>
    </mxGraphModel>
  </diagram>
</mxfile>
